<svg xmlns="http://www.w3.org/2000/svg" viewBox="0 0 200 200"><ellipse cx="100" cy="180" rx="52" ry="7" fill="#e5e7eb"/>
<path d="M100 60c-16-12-46-12-58 12-13 27 0 68 21 84 12 10 25 10 37 3 12 7 25 7 37-3 21-16 34-57 21-84-12-24-42-24-58-12z" fill="#ef4444" stroke="#b91c1c" stroke-width="3"/>
<path d="M100 62c0-14 3-24 10-34" stroke="#78350f" stroke-width="6" fill="none" stroke-linecap="round"/>
<path d="M107 46c10-16 31-19 42-12-6 14-25 21-42 12z" fill="#4ade80" stroke="#15803d" stroke-width="2.5"/>
<path d="M110 44c10-4 22-7 33-8" stroke="#15803d" stroke-width="1.6" fill="none"/>
<ellipse cx="66" cy="94" rx="9" ry="19" fill="#fff" opacity=".45" transform="rotate(20 66 94)"/></svg>
