<svg xmlns="http://www.w3.org/2000/svg" viewBox="0 0 200 200"><ellipse cx="100" cy="184" rx="64" ry="7" fill="#e5e7eb"/>
<g fill="#f8c9a0" stroke="#c97f4f" stroke-width="3">
<ellipse cx="54" cy="170" rx="16" ry="11"/><ellipse cx="146" cy="170" rx="16" ry="11"/></g>
<g fill="#93c5fd" stroke="#2563eb" stroke-width="3" stroke-linejoin="round">
<path d="M64 120c-16 4-24 14-28 26 6 6 14 4 20-4l12-10z"/><path d="M136 120c16 4 24 14 28 26-6 6-14 4-20-4l-12-10z"/>
<path d="M62 112c8-8 68-8 76 0 12 18 14 40 6 56-10 10-78 10-88 0-8-16-6-38 6-56z"/>
<path d="M56 168c-10-10-22-6-24 4 10 6 22 6 30 2z"/><path d="M144 168c10-10 22-6 24 4-10 6-22 6-30 2z"/></g>
<path d="M66 156c20 10 48 10 68 0-2 12-10 22-34 22s-32-10-34-22z" fill="#fff" stroke="#94a3b8" stroke-width="2.5" stroke-linejoin="round"/>
<g fill="#f8c9a0" stroke="#c97f4f" stroke-width="3"><circle cx="34" cy="148" r="9"/><circle cx="166" cy="148" r="9"/></g>
<circle cx="100" cy="126" r="5" fill="#fde047" stroke="#ca8a04" stroke-width="2"/>
<circle cx="100" cy="70" r="44" fill="#f8c9a0" stroke="#c97f4f" stroke-width="3"/>
<circle cx="56" cy="74" r="8" fill="#f8c9a0" stroke="#c97f4f" stroke-width="3"/><circle cx="144" cy="74" r="8" fill="#f8c9a0" stroke="#c97f4f" stroke-width="3"/>
<path d="M88 28c4-10 20-10 22 0 2 8-8 12-12 6" stroke="#7c4a1e" stroke-width="5" fill="none" stroke-linecap="round"/>
<circle cx="84" cy="70" r="5.5" fill="#1f2937"/><circle cx="116" cy="70" r="5.5" fill="#1f2937"/><circle cx="86" cy="68" r="1.8" fill="#fff"/><circle cx="118" cy="68" r="1.8" fill="#fff"/>
<circle cx="72" cy="88" r="7" fill="#fbcfe8"/><circle cx="128" cy="88" r="7" fill="#fbcfe8"/>
<path d="M90 92c6 7 14 7 20 0" stroke="#b45309" stroke-width="3.5" fill="none" stroke-linecap="round"/>
<ellipse cx="74" cy="46" rx="9" ry="5" fill="#fff" opacity=".4" transform="rotate(-30 74 46)"/></svg>
