<svg xmlns="http://www.w3.org/2000/svg" viewBox="0 0 200 200"><ellipse cx="100" cy="184" rx="40" ry="6" fill="#e5e7eb"/>
<g fill="#f8c9a0" stroke="#c97f4f" stroke-width="3">
<path d="M66 100c-10 14-14 30-12 44" fill="none" stroke-width="13" stroke="#c97f4f" stroke-linecap="round"/>
<path d="M134 100c10 14 14 30 12 44" fill="none" stroke-width="13" stroke="#c97f4f" stroke-linecap="round"/></g>
<path d="M66 100c-10 14-14 30-12 44M134 100c10 14 14 30 12 44" fill="none" stroke-width="8" stroke="#f8c9a0" stroke-linecap="round"/>
<g fill="#f8c9a0" stroke="#c97f4f" stroke-width="3"><circle cx="54" cy="148" r="7"/><circle cx="146" cy="148" r="7"/>
<rect x="80" y="140" width="15" height="34" rx="5"/><rect x="105" y="140" width="15" height="34" rx="5"/></g>
<path d="M76 134h48l2 18H74z" fill="#3b82f6" stroke="#1d4ed8" stroke-width="3" stroke-linejoin="round"/>
<path d="M100 136v16" stroke="#1d4ed8" stroke-width="2.5"/>
<path d="M70 98c4-6 12-8 30-8s26 2 30 8l10 18-14 6-2-6 2 22H74l2-22-2 6-14-6z" fill="#facc15" stroke="#a16207" stroke-width="3" stroke-linejoin="round"/>
<path d="M90 92c4 6 16 6 20 0" stroke="#a16207" stroke-width="2.5" fill="none" stroke-linecap="round"/>
<path d="M76 112h48" stroke="#f97316" stroke-width="6"/>
<g fill="#fff" stroke="#475569" stroke-width="2.5" stroke-linejoin="round"><path d="M76 172h20v6c0 3-2 5-5 5H72c-4 0-5-5-1-7z"/><path d="M124 172h-20v6c0 3 2 5 5 5h19c4 0 5-5 1-7z"/></g>
<path d="M76 174h20M104 174h20" stroke="#ef4444" stroke-width="3"/>
<circle cx="100" cy="54" r="34" fill="#f8c9a0" stroke="#c97f4f" stroke-width="3"/>
<circle cx="66" cy="58" r="7" fill="#f8c9a0" stroke="#c97f4f" stroke-width="3"/><circle cx="134" cy="58" r="7" fill="#f8c9a0" stroke="#c97f4f" stroke-width="3"/>
<path d="M66 52c-4-30 20-40 36-38 20 0 38 12 32 38-6-10-16-16-26-14l-6-8-6 10c-10-4-22 0-30 12z" fill="#7c4a1e" stroke="#4a2c12" stroke-width="3" stroke-linejoin="round"/>
<circle cx="88" cy="58" r="4.5" fill="#1f2937"/><circle cx="112" cy="58" r="4.5" fill="#1f2937"/><circle cx="89.5" cy="56.5" r="1.5" fill="#fff"/><circle cx="113.5" cy="56.5" r="1.5" fill="#fff"/>
<circle cx="80" cy="70" r="5" fill="#fbcfe8"/><circle cx="120" cy="70" r="5" fill="#fbcfe8"/>
<path d="M92 72c5 5 11 5 16 0" stroke="#b45309" stroke-width="3" fill="none" stroke-linecap="round"/></svg>
