<svg xmlns="http://www.w3.org/2000/svg" viewBox="0 0 200 200"><ellipse cx="100" cy="182" rx="86" ry="7" fill="#e5e7eb"/>
<rect x="18" y="80" width="40" height="98" rx="3" fill="#60a5fa" stroke="#1d4ed8" stroke-width="3"/>
<rect x="138" y="58" width="46" height="120" rx="3" fill="#4ade80" stroke="#15803d" stroke-width="3"/>
<path d="M138 58l23-22 23 22z" fill="#16a34a" stroke="#15803d" stroke-width="3" stroke-linejoin="round"/>
<rect x="52" y="30" width="46" height="148" rx="3" fill="#a78bfa" stroke="#6d28d9" stroke-width="3"/>
<path d="M75 30V12" stroke="#6d28d9" stroke-width="3"/><circle cx="75" cy="11" r="3.5" fill="#ef4444"/>
<rect x="94" y="96" width="48" height="82" rx="3" fill="#fb923c" stroke="#c2410c" stroke-width="3"/>
<g stroke="#fef9c3" stroke-width="8" stroke-dasharray="9 7"><path d="M30 90v84M46 90v84"/><path d="M64 40v124M86 40v124"/><path d="M106 106v58M130 106v58"/><path d="M151 68v106M171 68v106"/></g>
<rect x="68" y="160" width="14" height="18" fill="#4c1d95"/><rect x="111" y="162" width="14" height="16" fill="#7c2d12"/>
<path d="M8 178h184" stroke="#6b7280" stroke-width="3" stroke-linecap="round"/></svg>
