<svg xmlns="http://www.w3.org/2000/svg" viewBox="0 0 200 200"><ellipse cx="108" cy="176" rx="78" ry="7" fill="#e5e7eb"/>
<path d="M176 98c10 10 12 24 8 34" stroke="#6b7280" stroke-width="4" fill="none" stroke-linecap="round"/>
<path d="M181 130l6 8-9-1z" fill="#4b5563"/>
<g fill="#a3acb9" stroke="#6b7280" stroke-width="3"><rect x="76" y="124" width="21" height="50" rx="7"/><rect x="100" y="126" width="21" height="48" rx="7"/><rect x="134" y="126" width="21" height="48" rx="7"/><rect x="158" y="124" width="21" height="50" rx="7"/>
<ellipse cx="126" cy="104" rx="56" ry="40"/></g>
<g stroke="#fff" stroke-width="2.5" fill="none" stroke-linecap="round"><path d="M80 170h5M90 170h4M104 170h5M114 170h4M138 170h5M148 170h4M162 170h5M172 170h4"/></g>
<path d="M44 96c-14 22-18 44-10 60 4 8 14 8 18 2" stroke="#6b7280" stroke-width="21" fill="none" stroke-linecap="round"/>
<path d="M44 96c-14 22-18 44-10 60 4 8 14 8 18 2" stroke="#a3acb9" stroke-width="15" fill="none" stroke-linecap="round"/>
<path d="M30 124h10M28 136h10M30 148h9" stroke="#6b7280" stroke-width="2" stroke-linecap="round"/>
<circle cx="64" cy="78" r="34" fill="#a3acb9" stroke="#6b7280" stroke-width="3"/>
<path d="M60 104c-2 12-10 18-24 18" stroke="#a8a08a" stroke-width="9" fill="none" stroke-linecap="round"/>
<path d="M60 104c-2 12-10 18-24 18" stroke="#fffbeb" stroke-width="5.5" fill="none" stroke-linecap="round"/>
<ellipse cx="92" cy="82" rx="26" ry="35" fill="#a3acb9" stroke="#6b7280" stroke-width="3" transform="rotate(-8 92 82)"/>
<ellipse cx="94" cy="83" rx="15" ry="23" fill="#f2c4cc" transform="rotate(-8 94 83)"/>
<circle cx="50" cy="70" r="4.6" fill="#1f2937"/><circle cx="51.5" cy="68.5" r="1.5" fill="#fff"/>
<circle cx="40" cy="84" r="5" fill="#f2c4cc" opacity=".8"/></svg>
