<svg xmlns="http://www.w3.org/2000/svg" viewBox="0 0 200 200"><ellipse cx="96" cy="184" rx="66" ry="7" fill="#e5e7eb"/>
<g transform="translate(-16 8) scale(.92)">
<path d="M54 30h92l-10 140c-1 7-6 10-12 10H76c-6 0-11-3-12-10z" fill="#dbeafe" fill-opacity=".6"/>
<path d="M57 52h86l-10 116c-1 5-4 8-9 8H76c-5 0-8-3-9-8z" fill="#fffdf8" stroke="#cbd5e1" stroke-width="2"/>
<path d="M128 60l-8 110" stroke="#e2e8f0" stroke-width="10" stroke-linecap="round"/>
<ellipse cx="100" cy="52" rx="43" ry="7" fill="#fff" stroke="#cbd5e1" stroke-width="2.5"/>
<path d="M118 52c0 12 4 18 4 24 0 5-7 5-7 0 0-6 2-12 2-24z" fill="#fff" stroke="#cbd5e1" stroke-width="2"/>
<path d="M54 30h92l-10 140c-1 7-6 10-12 10H76c-6 0-11-3-12-10z" fill="none" stroke="#64748b" stroke-width="3" stroke-linejoin="round"/>
<ellipse cx="100" cy="30" rx="46" ry="8" fill="none" stroke="#64748b" stroke-width="3"/>
<path d="M64 38l4 12" stroke="#fff" stroke-width="7" stroke-linecap="round"/>
</g>
<g stroke="#1d4ed8" stroke-width="3" stroke-linejoin="round">
<path d="M146 92h40v86h-40z" fill="#fff"/>
<path d="M146 92l8-22h24l8 22z" fill="#60a5fa"/>
<path d="M154 70v-8h24v8z" fill="#dbeafe"/>
<path d="M146 112h40v26h-40z" fill="#60a5fa"/></g>
<path d="M166 118c-5 6-7 9-7 12a7 7 0 0 0 14 0c0-3-2-6-7-12z" fill="#fff"/>
<path d="M152 98v74" stroke="#e2e8f0" stroke-width="4" stroke-linecap="round"/></svg>
