<svg xmlns="http://www.w3.org/2000/svg" viewBox="0 0 200 200"><ellipse cx="100" cy="182" rx="70" ry="7" fill="#e5e7eb"/>
<rect x="38" y="26" width="124" height="148" rx="12" fill="#e5e7eb" stroke="#6b7280" stroke-width="3"/>
<path d="M38 60h124" stroke="#6b7280" stroke-width="3"/>
<path d="M41 57V38c0-6 4-9 9-9h100c5 0 9 3 9 9v19z" fill="#cbd5e1"/>
<g fill="#475569" stroke="#334155" stroke-width="2"><circle cx="60" cy="44" r="7"/><circle cx="82" cy="44" r="7"/><circle cx="118" cy="44" r="7"/><circle cx="140" cy="44" r="7"/></g>
<g stroke="#e5e7eb" stroke-width="2.5" stroke-linecap="round"><path d="M60 39v5M82 39v5M118 39v5M140 39v5"/></g>
<rect x="94" y="38" width="12" height="12" rx="2" fill="#22c55e"/>
<rect x="54" y="68" width="92" height="7" rx="3.5" fill="#94a3b8" stroke="#64748b" stroke-width="2"/>
<rect x="54" y="84" width="92" height="66" rx="8" fill="#1f2937" stroke="#4b5563" stroke-width="3"/>
<rect x="62" y="92" width="76" height="50" rx="5" fill="#f59e0b" opacity=".85"/>
<path d="M70 128h60" stroke="#7c2d12" stroke-width="3" stroke-linecap="round"/>
<ellipse cx="100" cy="122" rx="20" ry="7" fill="#b45309"/>
<path d="M70 98l14 0-18 22z" fill="#fff" opacity=".35"/>
<rect x="48" y="174" width="16" height="6" rx="2" fill="#4b5563"/><rect x="136" y="174" width="16" height="6" rx="2" fill="#4b5563"/></svg>
