<svg xmlns="http://www.w3.org/2000/svg" viewBox="0 0 200 200"><g transform="translate(-4 8) scale(1.55)"><ellipse cx="60" cy="110" rx="32" ry="5" fill="#e5e7eb"/><ellipse cx="46" cy="22" rx="7" ry="20" fill="#f3f4f6" stroke="#cbd5e1" stroke-width="2" transform="rotate(-8 46 22)"/><ellipse cx="46" cy="24" rx="3" ry="14" fill="#f9c6cf" transform="rotate(-8 46 24)"/><ellipse cx="66" cy="22" rx="7" ry="20" fill="#f3f4f6" stroke="#cbd5e1" stroke-width="2" transform="rotate(10 66 22)"/><ellipse cx="66" cy="24" rx="3" ry="14" fill="#f9c6cf" transform="rotate(10 66 24)"/><ellipse cx="62" cy="84" rx="30" ry="25" fill="#f3f4f6" stroke="#cbd5e1" stroke-width="2"/><circle cx="90" cy="92" r="8" fill="#fff" stroke="#cbd5e1" stroke-width="2"/><circle cx="56" cy="52" r="20" fill="#f3f4f6" stroke="#cbd5e1" stroke-width="2"/><circle cx="49" cy="50" r="2.8" fill="#1f2937"/><circle cx="63" cy="50" r="2.8" fill="#1f2937"/><path d="M53 57l3 3 3-3z" fill="#f472b6"/><path d="M56 60v3m0 0c-2 2-4 2-5 1m5-1c2 2 4 2 5 1" stroke="#9ca3af" stroke-width="1.5" fill="none" stroke-linecap="round"/><ellipse cx="48" cy="104" rx="10" ry="5" fill="#fff" stroke="#cbd5e1" stroke-width="2"/><ellipse cx="72" cy="104" rx="10" ry="5" fill="#fff" stroke="#cbd5e1" stroke-width="2"/></g></svg>
