<svg xmlns="http://www.w3.org/2000/svg" viewBox="0 0 200 200"><ellipse cx="100" cy="176" rx="80" ry="7" fill="#e5e7eb"/>
<ellipse cx="100" cy="148" rx="88" ry="24" fill="#f1f5f9" stroke="#94a3b8" stroke-width="3"/>
<ellipse cx="100" cy="146" rx="66" ry="15" fill="#fff" stroke="#cbd5e1" stroke-width="2"/>
<path d="M14 146c10 12 40 20 86 20s76-8 86-20" stroke="#22c55e" stroke-width="4" fill="none" stroke-linecap="round"/>
<path d="M42 148c-2-46 26-80 58-80s60 34 58 80c-14 8-34 12-58 12s-44-4-58-12z" fill="#fff" stroke="#9ca3af" stroke-width="3" stroke-linejoin="round"/>
<g fill="#fff" stroke="#cbd5e1" stroke-width="1.8"><ellipse cx="70" cy="104" rx="5" ry="2.6" transform="rotate(-30 70 104)"/><ellipse cx="88" cy="86" rx="5" ry="2.6" transform="rotate(20 88 86)"/><ellipse cx="110" cy="82" rx="5" ry="2.6" transform="rotate(-15 110 82)"/><ellipse cx="128" cy="98" rx="5" ry="2.6" transform="rotate(35 128 98)"/><ellipse cx="62" cy="128" rx="5" ry="2.6" transform="rotate(10 62 128)"/><ellipse cx="84" cy="116" rx="5" ry="2.6" transform="rotate(-40 84 116)"/><ellipse cx="104" cy="104" rx="5" ry="2.6" transform="rotate(25 104 104)"/><ellipse cx="124" cy="122" rx="5" ry="2.6" transform="rotate(-20 124 122)"/><ellipse cx="142" cy="134" rx="5" ry="2.6" transform="rotate(40 142 134)"/><ellipse cx="96" cy="138" rx="5" ry="2.6" transform="rotate(-10 96 138)"/><ellipse cx="76" cy="142" rx="5" ry="2.6" transform="rotate(30 76 142)"/><ellipse cx="116" cy="144" rx="5" ry="2.6" transform="rotate(5 116 144)"/><ellipse cx="100" cy="70" rx="5" ry="2.6" transform="rotate(0 100 70)"/><ellipse cx="54" cy="144" rx="5" ry="2.6" transform="rotate(-20 54 144)"/><ellipse cx="140" cy="114" rx="5" ry="2.6" transform="rotate(-50 140 114)"/></g>
<path d="M62 100c6-12 16-22 28-26" stroke="#e5e7eb" stroke-width="5" fill="none" stroke-linecap="round"/>
<path d="M118 62c6-10 18-14 28-10-4 10-16 14-28 10z" fill="#4ade80" stroke="#15803d" stroke-width="2.5" stroke-linejoin="round"/></svg>
